# xmcd CD database file
#
# Track frame offsets:
#	150
#	23122
#	49980
#	63720
#	80675
#	95857
#	199852
#	218509
#	233835
#
# Disc length: 3328 seconds
#
# Revision: 0
# Processed by: cddbd v1.4PL0 Copyright (c) Steve Scherf et al.
# Submitted via: CDex 1.50beta8
#
DISCID=800cfe09
DTITLE=Canned Heat - Live
DYEAR=2002
DGENRE=Blues
TTITLE0=On The Road Again
TTITLE1=Amphetamine Annie
TTITLE2=Going Up The country
TTITLE3=Let's Work Together
TTITLE4=Kings Of The Boogie
TTITLE5=Refried Hockey Boogie
TTITLE6=Hell's On Down The Line
TTITLE7=Chicken Shack Boogie
TTITLE8=So Long
EXTD=YEAR: 2002
EXTT0=
EXTT1=
EXTT2=
EXTT3=
EXTT4=
EXTT5=
EXTT6=
EXTT7=
EXTT8=
PLAYORDER=
